<?xml version="1.0" encoding="UTF-8"?>
<svg id="_鍥惧眰_2" data-name="鍥惧眰 2" xmlns="http://www.w3.org/2000/svg" viewBox="0 0 44 44">
  <defs>
    <style>
      .cls-1 {
        fill: #67baff;
      }

      .cls-1, .cls-2 {
        stroke-width: 0px;
      }

      .cls-3 {
        fill: none;
        stroke: #fff;
        stroke-miterlimit: 10;
        stroke-width: 2px;
      }

      .cls-2 {
        fill: #fff;
      }
    </style>
  </defs>
  <g id="_浜嬩欢涓婃姤" data-name="浜嬩欢涓婃姤">
    <rect fill="#67BAFF" x="0" y="0" width="44" height="44" rx="5" ry="5"/>
    <g id="_鍥惧眰_1-2" data-name="鍥惧眰 1">
      <rect fill="none" stroke="#FFFFFF" stroke-width="2" stroke-miterlimit="10" x="8" y="8" width="28" height="28" rx="3" ry="3"/>
    </g>
    <g id="_鍥惧眰_4" data-name="鍥惧眰 4">
      <rect fill="#FFFFFF" x="14.5" y="26" width="15" height="2" rx=".5" ry=".5"/>
      <rect fill="#FFFFFF" x="14.5" y="30" width="15" height="2" rx=".5" ry=".5"/>
    </g>
    <g id="_鍥惧眰_5" data-name="鍥惧眰 5">
      <path fill="#FFFFFF" d="m21.6,11.53l-4.76,6.34c-.28.38.06.9.52.79l2.01-.5c.32-.08.62.16.62.49v3.86c0,.28.22.5.5.5h3c.28,0,.5-.22.5-.5v-3.86c0-.33.31-.56.62-.49l2.01.5c.46.11.8-.41.52-.79l-4.76-6.34c-.2-.27-.6-.27-.8,0Z"/>
    </g>
  </g>
</svg>
