<?xml version="1.0" encoding="UTF-8"?>
<svg id="_鍥惧眰_2" data-name="鍥惧眰 2" xmlns="http://www.w3.org/2000/svg" viewBox="0 0 44 44">
  <defs>
    <style>
      .cls-1 {
        fill: #67baff;
      }

      .cls-1, .cls-2 {
        stroke-width: 0px;
      }

      .cls-3 {
        fill: none;
        stroke: #fff;
        stroke-miterlimit: 10;
        stroke-width: 2px;
      }

      .cls-2 {
        fill: #fff;
      }
    </style>
  </defs>
  <g id="_琛嶇敓椋庨櫓" data-name="琛嶇敓椋庨櫓">
    <rect fill="#67BAFF" x="0" y="0" width="44" height="44" rx="5" ry="5"/>
    <path fill="none" stroke="#FFFFFF" stroke-width="2" stroke-miterlimit="10" d="m21.98,6s-6,5-14,5v14s4,15,14,15,14-15,14-15v-14s-8,0-14-5Z"/>
    <path fill="#FFFFFF" d="m13.58,20.27h16.51c.39,0,.55-.49.24-.72l-6.62-4.91c-.32-.23-.75.08-.62.45l1.05,3.08h-10.17c-.22,0-.4.18-.4.4v1.7Z"/>
    <path fill="#FFFFFF" d="m30.49,23.72H13.97c-.39,0-.55.49-.24.72l6.62,4.91c.32.23.75-.08.62-.45l-1.05-3.08h10.17c.22,0,.4-.18.4-.4v-1.7Z"/>
  </g>
</svg>
