<?xml version="1.0" encoding="UTF-8"?>
<svg id="_鍥惧眰_2" data-name="鍥惧眰 2" xmlns="http://www.w3.org/2000/svg" viewBox="0 0 44 44">
  <defs>
    <style>
      .cls-1 {
        fill: #67baff;
      }

      .cls-1, .cls-2 {
        stroke-width: 0px;
      }

      .cls-3 {
        fill: none;
        stroke: #fff;
        stroke-miterlimit: 10;
        stroke-width: 2px;
      }

      .cls-2 {
        fill: #fff;
      }
    </style>
  </defs>
  <g id="_椋庨櫓涓婃姤" data-name="椋庨櫓涓婃姤">
    <rect fill="#67BAFF" x="0" y="0" width="44" height="44" rx="5" ry="5"/>
    <path fill="#FFFFFF" d="m21.6,11.53l-4.76,6.34c-.28.38.06.9.52.79l2.01-.5c.32-.08.62.16.62.49v3.86c0,.28.22.5.5.5h3c.28,0,.5-.22.5-.5v-3.86c0-.33.31-.56.62-.49l2.01.5c.46.11.8-.41.52-.79l-4.76-6.34c-.2-.27-.6-.27-.8,0Z"/>
    <path fill="none" stroke="#FFFFFF" stroke-width="2" stroke-miterlimit="10" d="m21.98,6s-6,5-14,5v14s4,15,14,15,14-15,14-15v-14s-8,0-14-5Z"/>
    <path fill="none" stroke="#FFFFFF" stroke-width="2" stroke-miterlimit="10" d="m10.98,31s5-5,11-5,11,5,11,5"/>
    <g id="_鍥惧眰_9" data-name="鍥惧眰 9">
      <path fill="#FFFFFF" d="m22,37.75c-.52,0-.89-.38-.89-.93,0-.52.36-.93.89-.93s.92.41.92.93c0,.55-.39.93-.92.93Zm-.01-9.87c.39,0,.83.09.84.5,0,.15-.01.35-.04.57-.1,1.12-.39,3.74-.51,5.47h-.57c-.13-1.73-.39-4.28-.51-5.46-.01-.19-.04-.45-.04-.6,0-.38.42-.48.83-.48Z"/>
    </g>
  </g>
</svg>
