<?xml version="1.0" encoding="UTF-8"?>
<svg id="_鍥惧眰_2" data-name="鍥惧眰 2" xmlns="http://www.w3.org/2000/svg" viewBox="0 0 44 44">
  <defs>
    <style>
      .cls-1, .cls-2, .cls-3 {
        stroke-width: 0px;
      }

      .cls-1, .cls-4 {
        fill: #fff;
      }

      .cls-2 {
        fill: #fe0000;
      }

      .cls-3 {
        fill: #014da3;
      }

      .cls-4 {
        stroke: #fff;
        stroke-miterlimit: 10;
        stroke-width: .1px;
      }
    </style>
  </defs>
  <g id="logo">
    <path fill="#014DA3" d="m22,.75c11.72,0,21.25,9.53,21.25,21.25s-9.53,21.25-21.25,21.25S.75,33.72.75,22,10.28.75,22,.75m0-.75C9.85,0,0,9.85,0,22s9.85,22,22,22,22-9.85,22-22S34.15,0,22,0h0Z"/>
    <path fill="#014DA3" d="m21.97,8.19c7.61,0,13.8,6.19,13.8,13.8s-6.19,13.8-13.8,13.8-13.8-6.19-13.8-13.8,6.19-13.8,13.8-13.8m0-6.3C10.87,1.89,1.87,10.89,1.87,21.99s9,20.1,20.1,20.1,20.1-9,20.1-20.1S33.07,1.89,21.97,1.89h0Z"/>
    <path fill="#FE0000" d="m16,12.26h.19c2.76,0,5,2.24,5,5v6.38c0,.22-.18.4-.4.4h-.19c-2.76,0-5-2.24-5-5v-6.38c0-.22.18-.4.4-.4Z"/>
    <path fill="#FE0000" d="m25.24,18.67h2.69c.22,0,.4.18.4.4v7.68c0,2.76-2.24,5-5,5h-.19c-.22,0-.4-.18-.4-.4v-10.18c0-1.38,1.12-2.5,2.5-2.5Z"/>
    <path fill="#FE0000" d="m25.24,12.26h2.69c.22,0,.4.18.4.4v2.08c0,1.38-1.12,2.5-2.5,2.5h-2.69c-.22,0-.4-.18-.4-.4v-2.08c0-1.38,1.12-2.5,2.5-2.5Z"/>
    <path fill="#FE0000" d="m16,26.74h2.72c1.37,0,2.48,1.11,2.48,2.48v2.1c0,.22-.18.4-.4.4h-2.69c-1.38,0-2.5-1.12-2.5-2.5v-2.08c0-.22.18-.4.4-.4Z"/>
    <g>
      <path fill="#FFFFFF" stroke="#FFFFFF" stroke-width="0.1" stroke-miterlimit="10" d="m5.45,14.1l.26-.59c.1-.23.2-.47.31-.73l.29.13c-.12.25-.24.48-.34.71l-.96,2.15c.64.29,1.1.5,1.36.65.26.14.52.31.78.5.26.19.48.42.68.69-.13.03-.26.09-.38.19-.12-.22-.33-.45-.63-.68-.3-.23-.64-.43-1.01-.61-.38-.18-.78-.36-1.2-.53l.66-1.48c-.17-.04-.34-.05-.53-.04.03-.12.04-.25.04-.4.23.01.45.03.67.04Zm1.86.58c.01.12.02.25.02.38-.43-.03-.89-.03-1.38.01,0-.1,0-.21-.03-.33.48-.05.94-.07,1.39-.07Zm.1.91c0,.1.02.21.04.35-.59,0-1.07.03-1.44.1-.03-.13-.05-.25-.06-.34.57-.08,1.06-.12,1.46-.11Zm-.04-1.68c.19.18.52.52.98,1.02l.21-.46c.07-.15.14-.32.21-.52l.34.15c-.09.18-.17.35-.24.5l-.78,1.75c-.08.19-.18.41-.28.68l-.34-.15c.12-.25.23-.47.32-.66l.43-.97c-.26-.31-.56-.62-.87-.91-.31-.29-.6-.53-.86-.71.14-.11.25-.22.32-.33.19.22.38.42.58.6Z"/>
      <path fill="#FFFFFF" stroke="#FFFFFF" stroke-width="0.1" stroke-miterlimit="10" d="m14.48,5.14l1.68-.68c-.03.09-.06.2-.11.34-.05.14-.1.3-.15.48l.85-.34c.06.17.14.4.26.69.11.28.22.52.31.72l-2.26.92c-.19.08-.4.18-.63.3l-.13-.32c.25-.09.47-.17.65-.25l1.91-.78-.13-.32-1.93.78c-.17.07-.36.15-.57.25l-.12-.28c.23-.08.42-.15.59-.22l1.93-.79-.14-.35-1.63.66c-.29.12-.52.22-.69.3l-.07-.17c-.1.2-.19.37-.27.53-.13-.06-.25-.1-.36-.12.16-.22.3-.49.43-.81.13-.32.21-.65.26-.98.15.02.31.02.48,0-.09.14-.14.28-.16.41Zm1.02.3c.08-.19.13-.36.16-.51l-1.3.53c-.06.18-.13.36-.21.53l1.35-.55Zm-.73,3.44c-.11,0-.23,0-.38.02.03-.27.04-.63.01-1.07.12,0,.24,0,.36-.03v1.08Zm.79-1.02c.04.11.08.2.12.27.04.07.11.08.22.04l.9-.37c.08-.03.13-.09.16-.17s.02-.22-.03-.41l.42-.02c.03.3.01.49-.06.57-.07.09-.19.16-.35.23l-1.1.44c-.19.07-.32.05-.39-.03-.07-.09-.13-.2-.18-.34-.05-.14-.13-.32-.24-.55l.35-.14c.07.2.13.36.17.47Zm.98-.55c-.08.09-.16.18-.23.29-.17-.13-.34-.24-.5-.34.05-.09.11-.17.17-.24.18.08.36.18.56.29Zm1.59-.38c-.06.1-.12.22-.18.36-.3-.2-.62-.37-.96-.5.03-.08.07-.17.12-.26.4.15.73.28,1.02.4Z"/>
      <path fill="#FFFFFF" stroke="#FFFFFF" stroke-width="0.1" stroke-miterlimit="10" d="m27.14,7.49c-.16-.02-.33-.05-.49-.07-.17-.02-.34-.04-.52-.05-.18-.01-.36-.02-.52-.02.02-.11.03-.26.04-.45.13.03.25.05.36.06l.85-2.15c.09-.23.18-.46.25-.69l1.38.55c-.09.2-.18.42-.28.66l-.76,1.92s.13.02.24.04l-.11.28c-.13-.03-.28-.05-.44-.08Zm-.41-.37c.11.02.24.04.37.07l.22-.57-.7-.28-.28.7c.14.03.27.06.38.08Zm.7-.77l.26-.67-.7-.28-.26.67.7.28Zm.36-.92l.25-.63-.7-.28-.25.63.7.28Zm.02,2.14c.19-.15.35-.32.48-.51.13-.19.26-.39.37-.61.11-.21.21-.42.28-.62-.19-.07-.36-.14-.52-.19l.12-.3c.14.07.31.14.51.22l.15-.38c.05-.12.11-.29.18-.51.12.06.26.12.43.19-.09.13-.17.27-.23.41-.06.14-.12.29-.18.43l.93.37c-.1.16-.21.38-.31.63l-.77,1.66c-.1.21-.22.3-.37.29-.15-.01-.33-.05-.55-.11.04-.15.05-.3.04-.45.21.08.36.14.44.16.08.02.16-.07.25-.28l.8-1.79-.57-.22c-.21.46-.4.82-.57,1.09-.17.27-.33.47-.48.6-.15.13-.29.25-.43.34-.13.09-.28.18-.44.26-.05-.12-.15-.25-.28-.36.28-.07.52-.18.71-.33Z"/>
      <path fill="#FFFFFF" stroke="#FFFFFF" stroke-width="0.1" stroke-miterlimit="10" d="m38.6,14.6l-.65.3.34.73c.08.18.17.37.27.55l-.31.14c-.08-.18-.16-.37-.24-.56l-.34-.74-.6.28.53,1.16c.08.16.16.33.25.5l-.31.14c-.07-.18-.14-.35-.22-.51l-.53-1.16-.88.4c-.16.09-.3.09-.41,0-.12-.08-.25-.26-.4-.52.13-.07.23-.18.3-.34.09.21.18.35.24.42.07.08.15.08.26.02l.73-.34-.54-1.17c-.1-.19-.19-.37-.27-.55l.31-.14c.07.19.15.38.24.56l.54,1.17.6-.28-.33-.72c-.09-.2-.19-.4-.29-.6l.31-.14c.08.2.17.4.26.61l.33.72.62-.28c-.29-.55-.51-.97-.66-1.26.1-.09.18-.18.24-.29.17.4.42.9.76,1.5.33.6.61,1.01.83,1.23-.12.13-.22.26-.28.38-.08-.15-.32-.56-.71-1.23Z"/>
    </g>
    <g>
      <path fill="#FFFFFF" d="m5.91,30.82l-.54-1.07,1.79-.91.52,1.01-.2.1-.39-.77-.55.28.36.71-.2.1-.36-.71-.64.32.42.83-.2.1Z"/>
      <path fill="#FFFFFF" d="m7.05,32.63l-.13-.2,1.19-.79v-.02s-1.36.56-1.36.56l-.1-.16,1.03-1.03v-.02s-1.2.79-1.2.79l-.13-.2,1.67-1.11.2.3-.96.95v.02s1.26-.52,1.26-.52l.2.3-1.67,1.11Z"/>
      <path fill="#FFFFFF" d="m8.37,34.27l-.77-.91,1.53-1.29.73.87-.17.14-.56-.66-.47.4.51.61-.17.14-.51-.61-.55.46.6.71-.17.14Z"/>
      <path fill="#FFFFFF" d="m9.94,35.8l-.21-.19.28-.92-.22-.21-.59.63-.2-.18,1.37-1.46.43.4c.14.13.22.26.24.41.02.15-.03.29-.17.44-.11.11-.22.18-.33.18-.12,0-.22-.01-.31-.06l-.29.96Zm.74-1.27c.07-.08.11-.17.1-.26s-.06-.19-.17-.29l-.19-.18-.47.5.24.22c.07.06.15.1.23.11.09.01.17-.03.26-.12Z"/>
      <path fill="#FFFFFF" d="m11.54,37.08l-.16-.12.07-.15c-.05.02-.12.02-.19,0-.07-.01-.14-.04-.2-.09-.13-.1-.2-.25-.22-.45-.01-.2.08-.43.28-.7.22-.29.43-.48.63-.55s.38-.05.55.07c.14.11.22.24.22.41s-.06.34-.18.5l-.21-.15c.1-.13.15-.25.15-.35,0-.1-.03-.18-.12-.24-.1-.07-.21-.08-.34-.01-.13.07-.28.22-.46.47-.17.23-.26.42-.26.55,0,.13.04.23.12.29s.17.08.26.05c.09-.02.18-.1.28-.23l.08-.1-.29-.22.13-.18.48.36-.61.83Z"/>
      <path fill="#FFFFFF" d="m13.38,38.17l-1.04-.6,1-1.74.99.57-.11.19-.75-.43-.31.54.69.4-.11.19-.69-.4-.36.62.8.46-.11.19Z"/>
      <path fill="#FFFFFF" d="m15.31,39.05l-.27-.12-.02-1.59h-.01s-.57,1.33-.57,1.33l-.25-.11.79-1.84.27.12.02,1.59h.01s.57-1.33.57-1.33l.25.11-.79,1.84Z"/>
      <path fill="#FFFFFF" d="m17.61,38.97c-.09.28-.21.47-.36.55s-.3.11-.46.06c-.18-.05-.31-.17-.4-.36-.08-.18-.08-.44.02-.76.1-.35.24-.6.42-.73s.36-.17.55-.12c.16.05.28.15.35.31.07.16.07.34,0,.57l-.25-.07c.05-.16.06-.3.03-.39-.03-.1-.09-.16-.2-.19-.12-.04-.23,0-.34.1s-.2.3-.29.59c-.08.27-.1.47-.06.6.04.13.11.21.23.24.08.02.17,0,.26-.05.09-.06.17-.2.24-.42l.26.08Z"/>
      <path fill="#FFFFFF" d="m19.82,38.17l-.73.99-.15.89-.27-.05.15-.89-.35-1.18.27.05.26.91h.01s.55-.77.55-.77l.27.05Z"/>
      <path fill="#FFFFFF" d="m25.84,39.9l-.28.05-.27-.58-.51.09-.05.64-.28.05.23-2.1.23-.04.93,1.9Zm-.64-.74l-.31-.67h-.02s-.06.74-.06.74l.39-.07Z"/>
      <path fill="#FFFFFF" d="m27.65,38.82c.05.17.04.32-.04.46s-.21.23-.4.28c-.19.06-.35.05-.48-.03-.14-.07-.23-.19-.27-.35l-.02-.08.26-.08.02.07c.03.11.09.19.18.23.09.04.17.05.26.02.12-.04.2-.09.24-.17.04-.08.04-.17.02-.25-.02-.08-.08-.13-.16-.18-.09-.04-.2-.07-.34-.09-.2-.01-.35-.05-.45-.11s-.17-.14-.21-.26c-.05-.16-.03-.3.05-.43.08-.13.19-.22.34-.26.2-.06.35-.04.47.05.12.09.2.2.24.34l-.26.08c-.02-.08-.06-.15-.13-.2s-.16-.06-.25-.03c-.09.03-.15.07-.19.14-.04.06-.04.14-.02.22.02.07.06.12.11.16s.18.06.37.08c.19.02.34.06.45.13.12.07.2.16.23.28Z"/>
      <path fill="#FFFFFF" d="m29.56,38.05c.07.17.08.32.01.46-.06.14-.18.25-.36.33-.18.08-.34.09-.49.03-.14-.06-.25-.16-.31-.31l-.03-.08.25-.11.03.06c.05.11.11.18.2.21.09.03.18.03.26-.01.12-.05.19-.12.21-.2s.02-.17-.01-.25c-.03-.07-.09-.12-.18-.16s-.21-.05-.35-.05c-.2,0-.35,0-.46-.06-.11-.05-.19-.12-.23-.23-.07-.15-.07-.29,0-.43.06-.14.17-.24.31-.3.19-.08.34-.08.48,0,.13.08.22.18.28.31l-.25.11c-.03-.08-.08-.14-.16-.19-.08-.04-.16-.04-.26,0-.09.04-.14.09-.17.16-.03.07-.03.14,0,.22.03.06.07.11.13.14.06.03.19.04.38.03.19,0,.34.02.47.07.12.05.21.14.26.25Z"/>
      <path fill="#FFFFFF" d="m31.23,37.78l-.23.13-1-1.73.23-.14,1,1.73Z"/>
      <path fill="#FFFFFF" d="m33.06,35.86c.11.14.15.29.12.44-.03.15-.12.29-.28.4-.16.12-.31.16-.46.14-.15-.02-.28-.1-.38-.23l-.05-.07.22-.16.04.06c.07.09.15.14.25.15.09,0,.18-.02.25-.07.1-.08.15-.16.16-.25,0-.09-.02-.17-.07-.25-.05-.06-.12-.1-.21-.11-.1-.01-.21,0-.35.04-.19.06-.35.07-.46.05-.12-.02-.21-.08-.28-.17-.1-.13-.13-.27-.1-.42.03-.15.11-.27.23-.36.16-.12.32-.16.46-.12.14.04.26.12.34.23l-.22.16c-.04-.07-.11-.12-.2-.15-.09-.02-.17,0-.25.06-.08.06-.12.12-.13.19s0,.14.06.21c.04.06.1.09.16.11.07.02.19,0,.38-.05.18-.05.34-.06.47-.04s.24.08.31.18Z"/>
      <path fill="#FFFFFF" d="m33.73,33.62l-.34.32,1.22,1.3-.2.19-1.22-1.3-.34.32-.15-.16.88-.83.15.16Z"/>
      <path fill="#FFFFFF" d="m36.42,33.25l-.18.21-.58-.27-.33.39.37.53-.18.21-1.17-1.75.15-.18,1.93.86Zm-.97-.16l-.67-.32-.02.02.43.6.26-.3Z"/>
      <path fill="#FFFFFF" d="m37.59,31.57l-.16.25-1.57-.26h0s1.21.81,1.21.81l-.15.23-1.67-1.1.16-.24,1.57.26h0s-1.21-.81-1.21-.81l.15-.22,1.67,1.1Z"/>
      <path fill="#FFFFFF" d="m37,28.9l-.21.42,1.59.8-.12.24-1.59-.8-.21.42-.2-.1.54-1.08.2.1Z"/>
    </g>
  </g>
</svg>
